<svg xmlns="http://www.w3.org/2000/svg" xmlns:xlink="http://www.w3.org/1999/xlink" width="1080" zoomAndPan="magnify" viewBox="0 0 810 1012.49997" height="1350" preserveAspectRatio="xMidYMid meet" version="1.0"><defs><clipPath id="edbac09ffa"><path d="M 387.476562 506 L 404.71875 506 L 404.71875 523.242188 L 387.476562 523.242188 Z M 387.476562 506 " clip-rule="nonzero"/></clipPath></defs><g clip-path="url(#edbac09ffa)"><path fill="#ffffff" d="M 397.183594 510.511719 L 397.183594 509.699219 C 397.683594 509.824219 398.144531 510.039062 398.527344 510.328125 C 398.859375 510.574219 399.117188 510.863281 399.300781 511.191406 C 399.429688 511.417969 399.515625 511.65625 399.5625 511.898438 L 398.761719 511.898438 C 398.628906 511.4375 398.285156 511.117188 398.0625 510.949219 C 397.8125 510.761719 397.511719 510.613281 397.183594 510.511719 Z M 396.40625 513.464844 C 396.304688 513.457031 396.199219 513.453125 396.097656 513.453125 C 395.992188 513.453125 395.886719 513.449219 395.785156 513.4375 L 395.785156 511.136719 C 395.886719 511.128906 395.992188 511.121094 396.097656 511.121094 C 396.203125 511.121094 396.304688 511.128906 396.40625 511.136719 Z M 398.527344 514.992188 C 398.859375 515.238281 399.117188 515.53125 399.300781 515.855469 C 399.496094 516.199219 399.59375 516.570312 399.59375 516.953125 C 399.59375 517.335938 399.496094 517.707031 399.300781 518.050781 C 399.117188 518.378906 398.859375 518.667969 398.527344 518.914062 C 398.144531 519.203125 397.683594 519.414062 397.183594 519.542969 L 397.183594 518.730469 C 397.511719 518.628906 397.8125 518.480469 398.0625 518.292969 C 398.34375 518.078125 398.816406 517.625 398.816406 516.953125 C 398.816406 516.28125 398.34375 515.828125 398.0625 515.613281 C 397.8125 515.425781 397.511719 515.277344 397.183594 515.175781 L 397.183594 514.363281 C 397.683594 514.492188 398.144531 514.703125 398.527344 514.992188 Z M 396.097656 519.675781 C 395.992188 519.675781 395.890625 519.671875 395.785156 519.664062 L 395.785156 518.882812 C 395.890625 518.890625 395.992188 518.898438 396.097656 518.898438 C 396.203125 518.898438 396.304688 518.890625 396.40625 518.882812 L 396.40625 519.664062 C 396.304688 519.671875 396.203125 519.675781 396.097656 519.675781 Z M 393.664062 518.914062 C 393.335938 518.667969 393.074219 518.378906 392.894531 518.050781 C 392.765625 517.824219 392.675781 517.585938 392.632812 517.34375 L 393.429688 517.34375 C 393.5625 517.800781 393.90625 518.125 394.132812 518.292969 C 394.382812 518.480469 394.683594 518.628906 395.007812 518.730469 L 395.007812 519.542969 C 394.507812 519.414062 394.050781 519.203125 393.664062 518.914062 Z M 397.183594 516.003906 C 397.335938 516.066406 397.472656 516.144531 397.597656 516.238281 C 397.761719 516.363281 398.039062 516.621094 398.039062 516.953125 C 398.039062 517.285156 397.761719 517.546875 397.597656 517.667969 C 397.472656 517.761719 397.335938 517.839844 397.183594 517.90625 Z M 395.785156 515.777344 C 395.890625 515.785156 395.992188 515.785156 396.097656 515.785156 C 396.203125 515.785156 396.304688 515.792969 396.40625 515.804688 L 396.40625 518.101562 C 396.304688 518.113281 396.203125 518.121094 396.097656 518.121094 C 395.992188 518.121094 395.886719 518.113281 395.785156 518.101562 Z M 395.785156 514.21875 C 395.890625 514.226562 395.992188 514.230469 396.097656 514.230469 C 396.203125 514.230469 396.304688 514.234375 396.40625 514.242188 L 396.40625 515.023438 C 396.304688 515.015625 396.203125 515.007812 396.097656 515.007812 C 395.992188 515.007812 395.890625 515.007812 395.785156 515 Z M 395.007812 511.335938 L 395.007812 513.238281 C 394.859375 513.175781 394.71875 513.097656 394.597656 513.003906 C 394.433594 512.878906 394.152344 512.621094 394.152344 512.289062 C 394.152344 511.957031 394.433594 511.695312 394.597656 511.570312 C 394.71875 511.480469 394.859375 511.402344 395.007812 511.335938 Z M 393.664062 514.25 C 393.335938 514.003906 393.074219 513.710938 392.894531 513.386719 C 392.699219 513.039062 392.597656 512.671875 392.597656 512.289062 C 392.597656 511.90625 392.699219 511.535156 392.894531 511.191406 C 393.074219 510.863281 393.335938 510.574219 393.664062 510.328125 C 394.050781 510.039062 394.507812 509.824219 395.007812 509.699219 L 395.007812 510.511719 C 394.683594 510.613281 394.382812 510.761719 394.132812 510.949219 C 393.847656 511.160156 393.375 511.617188 393.375 512.289062 C 393.375 512.960938 393.847656 513.414062 394.132812 513.625 C 394.382812 513.816406 394.683594 513.964844 395.007812 514.066406 L 395.007812 514.875 C 394.507812 514.75 394.050781 514.539062 393.664062 514.25 Z M 396.097656 509.566406 C 396.203125 509.566406 396.304688 509.570312 396.40625 509.578125 L 396.40625 510.359375 C 396.304688 510.347656 396.203125 510.34375 396.097656 510.34375 C 395.992188 510.34375 395.890625 510.347656 395.785156 510.359375 L 395.785156 509.578125 C 395.890625 509.570312 395.992188 509.566406 396.097656 509.566406 Z M 400.371094 512.675781 L 400.371094 512.289062 C 400.371094 511.769531 400.238281 511.273438 399.976562 510.808594 C 399.742188 510.386719 399.410156 510.019531 398.996094 509.707031 C 398.476562 509.316406 397.855469 509.042969 397.183594 508.902344 L 397.183594 508.011719 L 396.40625 508.011719 L 396.40625 508.800781 C 396.304688 508.792969 396.199219 508.789062 396.097656 508.789062 C 395.992188 508.789062 395.890625 508.792969 395.785156 508.800781 L 395.785156 508.011719 L 395.007812 508.011719 L 395.007812 508.902344 C 394.335938 509.042969 393.714844 509.316406 393.199219 509.707031 C 392.78125 510.019531 392.453125 510.386719 392.214844 510.808594 C 391.953125 511.273438 391.820312 511.769531 391.820312 512.289062 C 391.820312 512.804688 391.953125 513.304688 392.214844 513.769531 C 392.453125 514.1875 392.78125 514.558594 393.199219 514.871094 C 393.714844 515.257812 394.335938 515.53125 395.007812 515.675781 L 395.007812 517.90625 C 394.859375 517.839844 394.71875 517.761719 394.597656 517.667969 C 394.433594 517.546875 394.152344 517.285156 394.152344 516.953125 L 394.152344 516.566406 L 391.820312 516.566406 L 391.820312 516.953125 C 391.820312 517.472656 391.953125 517.96875 392.214844 518.433594 C 392.453125 518.851562 392.78125 519.222656 393.199219 519.535156 C 393.714844 519.921875 394.335938 520.195312 395.007812 520.339844 L 395.007812 521.230469 L 395.785156 521.230469 L 395.785156 520.441406 C 395.890625 520.449219 395.992188 520.453125 396.097656 520.453125 C 396.199219 520.453125 396.304688 520.449219 396.40625 520.441406 L 396.40625 521.230469 L 397.183594 521.230469 L 397.183594 520.339844 C 397.855469 520.195312 398.476562 519.921875 398.996094 519.535156 C 399.410156 519.222656 399.742188 518.851562 399.976562 518.433594 C 400.238281 517.96875 400.371094 517.472656 400.371094 516.953125 C 400.371094 516.433594 400.238281 515.9375 399.976562 515.472656 C 399.742188 515.054688 399.410156 514.683594 398.996094 514.371094 C 398.476562 513.984375 397.855469 513.710938 397.183594 513.566406 L 397.183594 511.335938 C 397.335938 511.402344 397.472656 511.480469 397.597656 511.570312 C 397.761719 511.695312 398.039062 511.957031 398.039062 512.289062 L 398.039062 512.675781 Z M 396.097656 506.777344 C 391.773438 506.777344 388.253906 510.296875 388.253906 514.621094 C 388.253906 518.945312 391.773438 522.464844 396.097656 522.464844 C 400.421875 522.464844 403.941406 518.945312 403.941406 514.621094 C 403.941406 510.296875 400.421875 506.777344 396.097656 506.777344 Z M 396.097656 523.242188 C 394.933594 523.242188 393.804688 523.011719 392.742188 522.5625 C 391.714844 522.128906 390.792969 521.507812 390 520.714844 C 389.210938 519.925781 388.589844 519.003906 388.152344 517.976562 C 387.703125 516.914062 387.476562 515.785156 387.476562 514.621094 C 387.476562 513.457031 387.703125 512.328125 388.152344 511.265625 C 388.589844 510.238281 389.210938 509.316406 390 508.523438 C 390.792969 507.734375 391.714844 507.113281 392.742188 506.679688 C 393.804688 506.226562 394.933594 506 396.097656 506 C 397.261719 506 398.390625 506.226562 399.453125 506.679688 C 400.480469 507.113281 401.402344 507.734375 402.191406 508.523438 C 402.984375 509.316406 403.605469 510.238281 404.039062 511.265625 C 404.488281 512.328125 404.71875 513.457031 404.71875 514.621094 C 404.71875 515.785156 404.488281 516.914062 404.039062 517.976562 C 403.605469 519.003906 402.984375 519.925781 402.191406 520.714844 C 401.402344 521.507812 400.480469 522.128906 399.453125 522.5625 C 398.390625 523.011719 397.261719 523.242188 396.097656 523.242188 " fill-opacity="1" fill-rule="nonzero"/></g><path fill="#ffffff" d="M 724.050781 222.710938 C 723.644531 222.09375 723.269531 221.457031 722.925781 220.800781 C 722.582031 220.144531 722.273438 219.472656 722 218.785156 C 721.726562 218.097656 721.488281 217.398438 721.285156 216.6875 C 721.085938 215.976562 720.917969 215.257812 720.789062 214.527344 C 720.660156 213.800781 720.570312 213.066406 720.515625 212.328125 C 720.464844 211.589844 720.449219 210.851562 720.46875 210.113281 C 720.492188 209.371094 720.550781 208.636719 720.648438 207.902344 C 720.746094 207.167969 720.882812 206.441406 721.050781 205.722656 C 721.222656 205.003906 721.433594 204.296875 721.675781 203.597656 C 721.921875 202.898438 722.199219 202.214844 722.515625 201.542969 C 722.828125 200.875 723.175781 200.222656 723.558594 199.589844 C 723.9375 198.953125 724.351562 198.34375 724.796875 197.75 C 725.238281 197.15625 725.710938 196.589844 726.214844 196.046875 C 726.714844 195.503906 727.242188 194.988281 727.796875 194.496094 C 728.351562 194.007812 728.929688 193.546875 729.53125 193.117188 C 730.136719 192.6875 730.757812 192.289062 731.398438 191.921875 C 742.472656 186.085938 752.410156 181.28125 756.25 184.644531 C 760.738281 188.785156 764.949219 193.191406 768.882812 197.863281 C 772.820312 202.535156 776.445312 207.4375 779.761719 212.566406 C 783.078125 217.691406 786.058594 223.007812 788.707031 228.515625 C 791.351562 234.019531 793.644531 239.667969 795.578125 245.460938 C 797.160156 250.148438 789.496094 258.503906 780.578125 267.71875 C 780.101562 268.226562 779.597656 268.703125 779.0625 269.152344 C 778.53125 269.601562 777.972656 270.015625 777.390625 270.402344 C 776.8125 270.785156 776.210938 271.136719 775.589844 271.449219 C 774.96875 271.765625 774.332031 272.046875 773.679688 272.289062 C 773.027344 272.53125 772.359375 272.734375 771.683594 272.902344 C 771.007812 273.066406 770.324219 273.195312 769.632812 273.28125 C 768.941406 273.371094 768.25 273.417969 767.554688 273.425781 C 766.855469 273.433594 766.160156 273.402344 765.46875 273.332031 C 764.777344 273.261719 764.089844 273.148438 763.410156 273 C 762.730469 272.847656 762.058594 272.660156 761.402344 272.433594 C 760.742188 272.207031 760.101562 271.945312 759.472656 271.644531 C 758.84375 271.34375 758.234375 271.007812 757.644531 270.636719 C 757.054688 270.265625 756.488281 269.863281 755.945312 269.425781 C 755.402344 268.992188 754.882812 268.527344 754.394531 268.03125 C 753.902344 267.539062 753.441406 267.015625 753.011719 266.46875 C 752.582031 265.921875 752.183594 265.351562 751.820312 264.757812 Z M 63.328125 754.773438 C 62.9375 754.152344 62.511719 753.554688 62.046875 752.980469 C 61.582031 752.410156 61.085938 751.867188 60.558594 751.355469 C 60.03125 750.84375 59.472656 750.363281 58.886719 749.917969 C 58.300781 749.472656 57.6875 749.066406 57.054688 748.695312 C 56.417969 748.324219 55.761719 747.992188 55.085938 747.699219 C 54.410156 747.40625 53.722656 747.15625 53.015625 746.945312 C 52.308594 746.738281 51.59375 746.570312 50.867188 746.445312 C 50.140625 746.324219 49.410156 746.246094 48.675781 746.210938 C 47.941406 746.175781 47.207031 746.183594 46.472656 746.238281 C 45.738281 746.289062 45.011719 746.386719 44.289062 746.527344 C 43.566406 746.667969 42.855469 746.851562 42.152344 747.078125 C 41.453125 747.304688 40.769531 747.574219 40.101562 747.882812 C 39.433594 748.191406 38.785156 748.539062 38.160156 748.925781 C 37.535156 749.316406 36.933594 749.738281 36.359375 750.199219 C 35.78125 750.65625 35.238281 751.148438 34.722656 751.675781 C 34.207031 752.199219 33.722656 752.753906 33.273438 753.335938 C 25.898438 762.453125 20 770.59375 21.769531 775.179688 C 26.320312 786.476562 32.101562 797.101562 39.109375 807.058594 C 46.121094 817.015625 54.171875 826.042969 63.269531 834.136719 C 66.148438 836.769531 74.660156 832.152344 84.164062 826.472656 C 84.769531 826.085938 85.355469 825.667969 85.917969 825.222656 C 86.480469 824.777344 87.019531 824.304688 87.539062 823.804688 C 88.054688 823.304688 88.546875 822.78125 89.011719 822.234375 C 89.476562 821.6875 89.910156 821.117188 90.320312 820.527344 C 90.730469 819.9375 91.105469 819.328125 91.457031 818.699219 C 91.804688 818.070312 92.121094 817.425781 92.40625 816.765625 C 92.6875 816.105469 92.941406 815.433594 93.160156 814.75 C 93.375 814.066406 93.558594 813.371094 93.710938 812.667969 C 93.859375 811.964844 93.972656 811.257812 94.054688 810.542969 C 94.132812 809.828125 94.175781 809.113281 94.183594 808.394531 C 94.191406 807.675781 94.167969 806.960938 94.105469 806.242188 C 94.042969 805.527344 93.945312 804.816406 93.8125 804.109375 C 93.679688 803.40625 93.511719 802.707031 93.308594 802.019531 C 93.105469 801.328125 92.871094 800.648438 92.601562 799.984375 C 92.332031 799.316406 92.03125 798.667969 91.699219 798.03125 C 91.367188 797.394531 91.003906 796.773438 90.609375 796.175781 Z M 168.878906 695.339844 C 149.023438 665.25 129.15625 635.160156 109.273438 605.078125 C 75.808594 554.359375 75.808594 554.359375 29.910156 590.914062 C 3.074219 612.265625 0.832031 625.554688 19.859375 654.5 C 58.453125 713.257812 98.214844 771.140625 135.734375 830.671875 C 180.597656 901.867188 183.804688 889.761719 241.183594 845.714844 C 255.214844 834.929688 255.664062 825.582031 245.496094 810.914062 C 219.339844 772.9375 194.332031 733.953125 168.878906 695.371094 Z M 789.941406 352.449219 C 751.789062 294.292969 712.546875 236.976562 675.304688 178.160156 C 631.269531 108.648438 627.847656 118.167969 569.378906 163.96875 C 568.667969 164.34375 567.984375 164.757812 567.324219 165.214844 C 566.664062 165.671875 566.03125 166.164062 565.429688 166.695312 C 564.828125 167.226562 564.257812 167.792969 563.726562 168.390625 C 563.191406 168.988281 562.691406 169.617188 562.234375 170.277344 C 561.773438 170.933594 561.351562 171.617188 560.972656 172.324219 C 560.59375 173.03125 560.261719 173.761719 559.96875 174.507812 C 559.675781 175.253906 559.429688 176.019531 559.226562 176.796875 C 559.023438 177.570312 558.871094 178.359375 558.761719 179.152344 C 558.652344 179.949219 558.59375 180.75 558.578125 181.550781 C 558.566406 182.355469 558.601562 183.15625 558.683594 183.953125 C 558.765625 184.75 558.894531 185.542969 559.070312 186.324219 C 559.246094 187.109375 559.46875 187.878906 559.734375 188.636719 C 560 189.394531 560.3125 190.132812 560.667969 190.851562 C 561.023438 191.570312 561.421875 192.269531 561.859375 192.941406 C 562.296875 193.613281 562.773438 194.257812 563.289062 194.875 C 563.800781 195.492188 564.351562 196.074219 564.933594 196.625 C 592.257812 236.269531 618.316406 276.878906 644.875 317.117188 L 703.101562 405.335938 C 735.453125 454.316406 735.453125 454.316406 780.753906 418.453125 C 808.734375 396.363281 810.648438 384.011719 789.941406 352.449219 Z M 282.496094 615.289062 C 250.859375 567.355469 219.222656 519.453125 187.585938 471.585938 C 148.042969 411.695312 148.042969 411.695312 92.535156 455.019531 C 60.828125 479.785156 59.230469 489.535156 82.179688 524.363281 C 147.898438 624.0625 213.6875 723.738281 279.546875 823.382812 C 322.414062 888.234375 323.25 888.308594 382.726562 839.386719 C 406.957031 819.457031 408.898438 807.132812 391.035156 779.894531 C 355.019531 724.917969 318.839844 670.046875 282.496094 615.289062 Z M 626.785156 327.183594 C 595.148438 279.25 563.511719 231.359375 531.875 183.511719 C 493.148438 124.925781 493.136719 124.925781 438.792969 167.304688 C 405.203125 193.53125 404.09375 200.953125 428.828125 238.429688 C 494.601562 338.128906 560.410156 437.761719 626.253906 537.320312 C 667.824219 600.230469 667.8125 600.246094 725.058594 554.832031 C 753.011719 532.660156 754.984375 521.671875 735.339844 491.734375 C 699.292969 436.773438 663.109375 381.921875 626.785156 327.183594 Z M 502.308594 396.566406 C 501.910156 395.917969 501.476562 395.289062 501.011719 394.6875 C 500.542969 394.082031 500.046875 393.503906 499.519531 392.953125 C 498.996094 392.402344 498.441406 391.878906 497.859375 391.386719 C 497.277344 390.894531 496.671875 390.429688 496.039062 390 C 495.410156 389.574219 494.757812 389.175781 494.085938 388.816406 C 493.417969 388.453125 492.726562 388.128906 492.019531 387.839844 C 491.316406 387.550781 490.597656 387.300781 489.863281 387.085938 C 489.132812 386.875 488.390625 386.699219 487.640625 386.566406 C 486.890625 386.429688 486.132812 386.335938 485.371094 386.277344 C 484.613281 386.222656 483.851562 386.207031 483.089844 386.230469 C 482.324219 386.253906 481.566406 386.320312 480.8125 386.421875 C 480.054688 386.527344 479.308594 386.667969 478.566406 386.851562 C 477.828125 387.035156 477.097656 387.253906 476.378906 387.515625 C 475.664062 387.773438 474.960938 388.070312 474.273438 388.402344 C 473.589844 388.734375 472.921875 389.101562 472.273438 389.507812 C 471.628906 389.910156 471.003906 390.34375 470.402344 390.8125 L 286.335938 533.464844 C 285.71875 533.96875 285.125 534.503906 284.558594 535.0625 C 283.992188 535.621094 283.449219 536.207031 282.933594 536.816406 C 282.421875 537.425781 281.933594 538.054688 281.476562 538.707031 C 281.023438 539.363281 280.597656 540.035156 280.199219 540.726562 C 279.804688 541.421875 279.445312 542.128906 279.113281 542.855469 C 278.785156 543.582031 278.488281 544.320312 278.226562 545.074219 C 277.964844 545.828125 277.734375 546.589844 277.542969 547.363281 C 277.351562 548.136719 277.195312 548.917969 277.074219 549.707031 C 276.953125 550.496094 276.867188 551.285156 276.820312 552.082031 C 276.773438 552.878906 276.757812 553.675781 276.785156 554.472656 C 276.808594 555.269531 276.871094 556.0625 276.96875 556.851562 C 277.066406 557.644531 277.199219 558.429688 277.367188 559.207031 C 277.535156 559.988281 277.742188 560.757812 277.980469 561.519531 C 278.222656 562.277344 278.496094 563.027344 278.804688 563.761719 C 279.109375 564.496094 279.453125 565.214844 279.828125 565.921875 C 280.199219 566.625 280.605469 567.308594 281.042969 567.976562 L 303.632812 602.203125 C 304.035156 602.851562 304.46875 603.476562 304.933594 604.082031 C 305.398438 604.6875 305.894531 605.265625 306.421875 605.816406 C 306.949219 606.367188 307.503906 606.890625 308.082031 607.386719 C 308.664062 607.878906 309.269531 608.339844 309.902344 608.769531 C 310.53125 609.199219 311.183594 609.597656 311.855469 609.957031 C 312.527344 610.320312 313.214844 610.644531 313.921875 610.933594 C 314.628906 611.222656 315.347656 611.472656 316.078125 611.6875 C 316.8125 611.898438 317.554688 612.074219 318.304688 612.210938 C 319.054688 612.34375 319.808594 612.441406 320.570312 612.496094 C 321.332031 612.550781 322.09375 612.566406 322.855469 612.542969 C 323.617188 612.519531 324.378906 612.453125 325.132812 612.351562 C 325.890625 612.246094 326.636719 612.101562 327.378906 611.921875 C 328.117188 611.738281 328.847656 611.515625 329.566406 611.257812 C 330.28125 610.996094 330.984375 610.699219 331.671875 610.367188 C 332.355469 610.035156 333.023438 609.664062 333.671875 609.261719 C 334.316406 608.859375 334.941406 608.421875 335.542969 607.953125 L 519.609375 465.304688 C 520.226562 464.796875 520.820312 464.265625 521.386719 463.707031 C 521.953125 463.144531 522.496094 462.5625 523.011719 461.953125 C 523.523438 461.34375 524.011719 460.710938 524.464844 460.058594 C 524.921875 459.40625 525.347656 458.730469 525.742188 458.039062 C 526.136719 457.347656 526.5 456.636719 526.832031 455.910156 C 527.160156 455.1875 527.457031 454.445312 527.71875 453.695312 C 527.980469 452.941406 528.210938 452.175781 528.402344 451.402344 C 528.59375 450.628906 528.75 449.847656 528.871094 449.0625 C 528.992188 448.273438 529.078125 447.480469 529.125 446.683594 C 529.171875 445.890625 529.183594 445.09375 529.160156 444.296875 C 529.136719 443.5 529.074219 442.707031 528.976562 441.914062 C 528.878906 441.121094 528.746094 440.335938 528.578125 439.558594 C 528.40625 438.78125 528.203125 438.007812 527.964844 437.25 C 527.722656 436.488281 527.449219 435.742188 527.140625 435.003906 C 526.832031 434.269531 526.492188 433.550781 526.117188 432.847656 C 525.742188 432.144531 525.339844 431.457031 524.902344 430.789062 Z M 502.308594 396.566406 " fill-opacity="1" fill-rule="nonzero"/></svg>