<svg xmlns="http://www.w3.org/2000/svg" xmlns:xlink="http://www.w3.org/1999/xlink" width="1080" zoomAndPan="magnify" viewBox="0 0 810 1012.49997" height="1350" preserveAspectRatio="xMidYMid meet" version="1.0"><defs><clipPath id="64a7822e59"><path d="M 387.476562 506 L 404.71875 506 L 404.71875 523.242188 L 387.476562 523.242188 Z M 387.476562 506 " clip-rule="nonzero"/></clipPath><clipPath id="7d5a4ba248"><path d="M 0.199219 6 L 794 6 L 794 953.527344 L 0.199219 953.527344 Z M 0.199219 6 " clip-rule="nonzero"/></clipPath></defs><g clip-path="url(#64a7822e59)"><path fill="#ffffff" d="M 397.183594 510.511719 L 397.183594 509.699219 C 397.683594 509.824219 398.144531 510.039062 398.527344 510.328125 C 398.859375 510.574219 399.117188 510.863281 399.300781 511.191406 C 399.429688 511.417969 399.515625 511.65625 399.5625 511.898438 L 398.761719 511.898438 C 398.628906 511.4375 398.285156 511.117188 398.0625 510.949219 C 397.8125 510.761719 397.511719 510.613281 397.183594 510.511719 Z M 396.40625 513.464844 C 396.304688 513.457031 396.199219 513.453125 396.097656 513.453125 C 395.992188 513.453125 395.886719 513.449219 395.785156 513.4375 L 395.785156 511.136719 C 395.886719 511.128906 395.992188 511.121094 396.097656 511.121094 C 396.203125 511.121094 396.304688 511.128906 396.40625 511.136719 Z M 398.527344 514.992188 C 398.859375 515.238281 399.117188 515.53125 399.300781 515.855469 C 399.496094 516.199219 399.59375 516.570312 399.59375 516.953125 C 399.59375 517.335938 399.496094 517.707031 399.300781 518.050781 C 399.117188 518.378906 398.859375 518.667969 398.527344 518.914062 C 398.144531 519.203125 397.683594 519.414062 397.183594 519.542969 L 397.183594 518.730469 C 397.511719 518.628906 397.8125 518.480469 398.0625 518.292969 C 398.34375 518.078125 398.816406 517.625 398.816406 516.953125 C 398.816406 516.28125 398.34375 515.828125 398.0625 515.613281 C 397.8125 515.425781 397.511719 515.277344 397.183594 515.175781 L 397.183594 514.363281 C 397.683594 514.492188 398.144531 514.703125 398.527344 514.992188 Z M 396.097656 519.675781 C 395.992188 519.675781 395.890625 519.671875 395.785156 519.664062 L 395.785156 518.882812 C 395.890625 518.890625 395.992188 518.898438 396.097656 518.898438 C 396.203125 518.898438 396.304688 518.890625 396.40625 518.882812 L 396.40625 519.664062 C 396.304688 519.671875 396.203125 519.675781 396.097656 519.675781 Z M 393.664062 518.914062 C 393.335938 518.667969 393.074219 518.378906 392.894531 518.050781 C 392.765625 517.824219 392.675781 517.585938 392.632812 517.34375 L 393.429688 517.34375 C 393.5625 517.800781 393.90625 518.125 394.132812 518.292969 C 394.382812 518.480469 394.683594 518.628906 395.007812 518.730469 L 395.007812 519.542969 C 394.507812 519.414062 394.050781 519.203125 393.664062 518.914062 Z M 397.183594 516.003906 C 397.335938 516.066406 397.472656 516.144531 397.597656 516.238281 C 397.761719 516.363281 398.039062 516.621094 398.039062 516.953125 C 398.039062 517.285156 397.761719 517.546875 397.597656 517.667969 C 397.472656 517.761719 397.335938 517.839844 397.183594 517.90625 Z M 395.785156 515.777344 C 395.890625 515.785156 395.992188 515.785156 396.097656 515.785156 C 396.203125 515.785156 396.304688 515.792969 396.40625 515.804688 L 396.40625 518.101562 C 396.304688 518.113281 396.203125 518.121094 396.097656 518.121094 C 395.992188 518.121094 395.886719 518.113281 395.785156 518.101562 Z M 395.785156 514.21875 C 395.890625 514.226562 395.992188 514.230469 396.097656 514.230469 C 396.203125 514.230469 396.304688 514.234375 396.40625 514.242188 L 396.40625 515.023438 C 396.304688 515.015625 396.203125 515.007812 396.097656 515.007812 C 395.992188 515.007812 395.890625 515.007812 395.785156 515 Z M 395.007812 511.335938 L 395.007812 513.238281 C 394.859375 513.175781 394.71875 513.097656 394.597656 513.003906 C 394.433594 512.878906 394.152344 512.621094 394.152344 512.289062 C 394.152344 511.957031 394.433594 511.695312 394.597656 511.570312 C 394.71875 511.480469 394.859375 511.402344 395.007812 511.335938 Z M 393.664062 514.25 C 393.335938 514.003906 393.074219 513.710938 392.894531 513.386719 C 392.699219 513.039062 392.597656 512.671875 392.597656 512.289062 C 392.597656 511.90625 392.699219 511.535156 392.894531 511.191406 C 393.074219 510.863281 393.335938 510.574219 393.664062 510.328125 C 394.050781 510.039062 394.507812 509.824219 395.007812 509.699219 L 395.007812 510.511719 C 394.683594 510.613281 394.382812 510.761719 394.132812 510.949219 C 393.847656 511.160156 393.375 511.617188 393.375 512.289062 C 393.375 512.960938 393.847656 513.414062 394.132812 513.625 C 394.382812 513.816406 394.683594 513.964844 395.007812 514.066406 L 395.007812 514.875 C 394.507812 514.75 394.050781 514.539062 393.664062 514.25 Z M 396.097656 509.566406 C 396.203125 509.566406 396.304688 509.570312 396.40625 509.578125 L 396.40625 510.359375 C 396.304688 510.347656 396.203125 510.34375 396.097656 510.34375 C 395.992188 510.34375 395.890625 510.347656 395.785156 510.359375 L 395.785156 509.578125 C 395.890625 509.570312 395.992188 509.566406 396.097656 509.566406 Z M 400.371094 512.675781 L 400.371094 512.289062 C 400.371094 511.769531 400.238281 511.273438 399.976562 510.808594 C 399.742188 510.386719 399.410156 510.019531 398.996094 509.707031 C 398.476562 509.316406 397.855469 509.042969 397.183594 508.902344 L 397.183594 508.011719 L 396.40625 508.011719 L 396.40625 508.800781 C 396.304688 508.792969 396.199219 508.789062 396.097656 508.789062 C 395.992188 508.789062 395.890625 508.792969 395.785156 508.800781 L 395.785156 508.011719 L 395.007812 508.011719 L 395.007812 508.902344 C 394.335938 509.042969 393.714844 509.316406 393.199219 509.707031 C 392.78125 510.019531 392.453125 510.386719 392.214844 510.808594 C 391.953125 511.273438 391.820312 511.769531 391.820312 512.289062 C 391.820312 512.804688 391.953125 513.304688 392.214844 513.769531 C 392.453125 514.1875 392.78125 514.558594 393.199219 514.871094 C 393.714844 515.257812 394.335938 515.53125 395.007812 515.675781 L 395.007812 517.90625 C 394.859375 517.839844 394.71875 517.761719 394.597656 517.667969 C 394.433594 517.546875 394.152344 517.285156 394.152344 516.953125 L 394.152344 516.566406 L 391.820312 516.566406 L 391.820312 516.953125 C 391.820312 517.472656 391.953125 517.96875 392.214844 518.433594 C 392.453125 518.851562 392.78125 519.222656 393.199219 519.535156 C 393.714844 519.921875 394.335938 520.195312 395.007812 520.339844 L 395.007812 521.230469 L 395.785156 521.230469 L 395.785156 520.441406 C 395.890625 520.449219 395.992188 520.453125 396.097656 520.453125 C 396.199219 520.453125 396.304688 520.449219 396.40625 520.441406 L 396.40625 521.230469 L 397.183594 521.230469 L 397.183594 520.339844 C 397.855469 520.195312 398.476562 519.921875 398.996094 519.535156 C 399.410156 519.222656 399.742188 518.851562 399.976562 518.433594 C 400.238281 517.96875 400.371094 517.472656 400.371094 516.953125 C 400.371094 516.433594 400.238281 515.9375 399.976562 515.472656 C 399.742188 515.054688 399.410156 514.683594 398.996094 514.371094 C 398.476562 513.984375 397.855469 513.710938 397.183594 513.566406 L 397.183594 511.335938 C 397.335938 511.402344 397.472656 511.480469 397.597656 511.570312 C 397.761719 511.695312 398.039062 511.957031 398.039062 512.289062 L 398.039062 512.675781 Z M 396.097656 506.777344 C 391.773438 506.777344 388.253906 510.296875 388.253906 514.621094 C 388.253906 518.945312 391.773438 522.464844 396.097656 522.464844 C 400.421875 522.464844 403.941406 518.945312 403.941406 514.621094 C 403.941406 510.296875 400.421875 506.777344 396.097656 506.777344 Z M 396.097656 523.242188 C 394.933594 523.242188 393.804688 523.011719 392.742188 522.5625 C 391.714844 522.128906 390.792969 521.507812 390 520.714844 C 389.210938 519.925781 388.589844 519.003906 388.152344 517.976562 C 387.703125 516.914062 387.476562 515.785156 387.476562 514.621094 C 387.476562 513.457031 387.703125 512.328125 388.152344 511.265625 C 388.589844 510.238281 389.210938 509.316406 390 508.523438 C 390.792969 507.734375 391.714844 507.113281 392.742188 506.679688 C 393.804688 506.226562 394.933594 506 396.097656 506 C 397.261719 506 398.390625 506.226562 399.453125 506.679688 C 400.480469 507.113281 401.402344 507.734375 402.191406 508.523438 C 402.984375 509.316406 403.605469 510.238281 404.039062 511.265625 C 404.488281 512.328125 404.71875 513.457031 404.71875 514.621094 C 404.71875 515.785156 404.488281 516.914062 404.039062 517.976562 C 403.605469 519.003906 402.984375 519.925781 402.191406 520.714844 C 401.402344 521.507812 400.480469 522.128906 399.453125 522.5625 C 398.390625 523.011719 397.261719 523.242188 396.097656 523.242188 " fill-opacity="1" fill-rule="nonzero"/></g><g clip-path="url(#7d5a4ba248)"><path fill="#ffffff" d="M 446.398438 23.328125 L 496.832031 61.078125 C 510.625 71.398438 525.140625 76.683594 542.34375 77.640625 L 605.238281 81.140625 C 642.902344 83.234375 673.488281 108.902344 682.089844 145.625 L 696.460938 206.960938 C 700.386719 223.734375 708.113281 237.113281 720.675781 248.902344 L 766.605469 292.015625 C 794.109375 317.828125 801.042969 357.148438 784.027344 390.8125 L 755.609375 447.035156 C 747.835938 462.410156 745.152344 477.625 747.199219 494.730469 L 754.675781 557.277344 C 759.152344 594.730469 739.1875 629.3125 704.515625 644.160156 L 646.605469 668.960938 C 630.769531 675.742188 618.933594 685.671875 609.503906 700.09375 L 575.027344 752.8125 C 554.382812 784.378906 516.859375 798.039062 480.753906 787.125 L 420.453125 768.902344 C 403.960938 763.917969 388.511719 763.917969 372.019531 768.902344 L 311.71875 787.125 C 275.613281 798.039062 238.09375 784.378906 217.449219 752.8125 L 182.96875 700.09375 C 173.539062 685.671875 161.703125 675.742188 145.867188 668.960938 L 87.960938 644.160156 C 53.289062 629.3125 33.324219 594.730469 37.800781 557.277344 L 45.277344 494.726562 C 47.320312 477.621094 44.636719 462.40625 36.867188 447.03125 L 8.445312 390.8125 C -8.570312 357.148438 -1.632812 317.828125 25.867188 292.011719 L 71.800781 248.902344 C 84.363281 237.109375 92.085938 223.734375 96.015625 206.957031 L 110.382812 145.625 C 118.988281 108.898438 149.574219 83.234375 187.234375 81.136719 L 250.132812 77.640625 C 267.335938 76.683594 281.851562 71.398438 295.644531 61.074219 L 346.074219 23.324219 C 376.273438 0.722656 416.203125 0.722656 446.398438 23.328125 Z M 364.070312 420.210938 L 309.339844 365.480469 C 295.15625 351.296875 272.148438 351.296875 257.960938 365.480469 C 243.777344 379.667969 243.777344 402.675781 257.960938 416.859375 L 338.457031 497.351562 C 352.640625 511.535156 375.652344 511.535156 389.835938 497.351562 C 438.355469 448.832031 486.324219 399.769531 534.617188 351.027344 C 548.699219 336.8125 548.65625 313.878906 534.460938 299.761719 C 520.261719 285.640625 497.261719 285.683594 483.167969 299.921875 Z M 396.238281 125.917969 C 320.941406 125.917969 252.769531 156.441406 203.417969 205.789062 C 154.074219 255.132812 123.550781 323.304688 123.550781 398.605469 C 123.550781 473.902344 154.074219 542.074219 203.417969 591.421875 C 252.765625 640.765625 320.9375 671.289062 396.238281 671.289062 C 471.535156 671.289062 539.710938 640.765625 589.054688 591.421875 C 638.402344 542.074219 668.921875 473.902344 668.921875 398.605469 C 668.921875 323.304688 638.402344 255.132812 589.054688 205.789062 C 539.710938 156.441406 471.539062 125.917969 396.238281 125.917969 Z M 567.3125 227.53125 C 523.53125 183.753906 463.046875 156.671875 396.238281 156.671875 C 329.429688 156.671875 268.945312 183.753906 225.164062 227.53125 C 181.382812 271.3125 154.304688 331.796875 154.304688 398.605469 C 154.304688 465.414062 181.382812 525.898438 225.164062 569.679688 C 268.945312 613.460938 329.429688 640.539062 396.238281 640.539062 C 463.046875 640.539062 523.53125 613.460938 567.3125 569.679688 C 611.089844 525.898438 638.171875 465.414062 638.171875 398.605469 C 638.171875 331.796875 611.089844 271.3125 567.3125 227.53125 Z M 498.703125 821.359375 L 558.46875 949.734375 C 559.398438 951.730469 561.234375 952.960938 563.4375 953.0625 C 565.636719 953.160156 567.578125 952.105469 568.683594 950.195312 L 613.261719 873.484375 L 700.660156 888.757812 C 702.832031 889.132812 704.890625 888.332031 706.230469 886.582031 C 707.570312 884.835938 707.8125 882.640625 706.878906 880.644531 L 632.566406 721.019531 L 600.765625 769.644531 C 577.8125 804.738281 538.945312 823.738281 498.703125 821.359375 Z M 296.082031 821.199219 C 255.019531 824.453125 215.101562 805.410156 191.710938 769.644531 L 161.214844 723.011719 L 87.828125 880.644531 C 86.898438 882.640625 87.140625 884.835938 88.480469 886.582031 C 89.820312 888.332031 91.878906 889.132812 94.050781 888.757812 L 181.449219 873.484375 L 226.027344 950.195312 C 227.136719 952.101562 229.074219 953.160156 231.273438 953.058594 C 233.476562 952.957031 235.3125 951.730469 236.242188 949.730469 Z M 296.082031 821.199219 " fill-opacity="1" fill-rule="evenodd"/></g></svg>