<svg xmlns="http://www.w3.org/2000/svg" xmlns:xlink="http://www.w3.org/1999/xlink" width="1080" zoomAndPan="magnify" viewBox="0 0 810 1012.49997" height="1350" preserveAspectRatio="xMidYMid meet" version="1.0"><defs><clipPath id="eca08312c8"><path d="M 387.476562 506 L 404.71875 506 L 404.71875 523.242188 L 387.476562 523.242188 Z M 387.476562 506 " clip-rule="nonzero"/></clipPath><clipPath id="b866f9b871"><path d="M 538 457 L 809.800781 457 L 809.800781 699 L 538 699 Z M 538 457 " clip-rule="nonzero"/></clipPath><clipPath id="0c8a0acf18"><path d="M 164 458 L 646 458 L 646 765.863281 L 164 765.863281 Z M 164 458 " clip-rule="nonzero"/></clipPath><clipPath id="f63939a509"><path d="M 538 457 L 809.800781 457 L 809.800781 699 L 538 699 Z M 538 457 " clip-rule="nonzero"/></clipPath><clipPath id="505d749283"><path d="M 0.199219 457 L 272 457 L 272 698 L 0.199219 698 Z M 0.199219 457 " clip-rule="nonzero"/></clipPath><clipPath id="acbdefa5c5"><path d="M 0.199219 457 L 272 457 L 272 698 L 0.199219 698 Z M 0.199219 457 " clip-rule="nonzero"/></clipPath></defs><g clip-path="url(#eca08312c8)"><path fill="#ffffff" d="M 397.183594 510.511719 L 397.183594 509.699219 C 397.683594 509.824219 398.144531 510.039062 398.527344 510.328125 C 398.859375 510.574219 399.117188 510.863281 399.300781 511.191406 C 399.429688 511.417969 399.515625 511.65625 399.5625 511.898438 L 398.761719 511.898438 C 398.628906 511.4375 398.285156 511.117188 398.0625 510.949219 C 397.8125 510.761719 397.511719 510.613281 397.183594 510.511719 Z M 396.40625 513.464844 C 396.304688 513.457031 396.199219 513.453125 396.097656 513.453125 C 395.992188 513.453125 395.886719 513.449219 395.785156 513.4375 L 395.785156 511.136719 C 395.886719 511.128906 395.992188 511.121094 396.097656 511.121094 C 396.203125 511.121094 396.304688 511.128906 396.40625 511.136719 Z M 398.527344 514.992188 C 398.859375 515.238281 399.117188 515.53125 399.300781 515.855469 C 399.496094 516.199219 399.59375 516.570312 399.59375 516.953125 C 399.59375 517.335938 399.496094 517.707031 399.300781 518.050781 C 399.117188 518.378906 398.859375 518.667969 398.527344 518.914062 C 398.144531 519.203125 397.683594 519.414062 397.183594 519.542969 L 397.183594 518.730469 C 397.511719 518.628906 397.8125 518.480469 398.0625 518.292969 C 398.34375 518.078125 398.816406 517.625 398.816406 516.953125 C 398.816406 516.28125 398.34375 515.828125 398.0625 515.613281 C 397.8125 515.425781 397.511719 515.277344 397.183594 515.175781 L 397.183594 514.363281 C 397.683594 514.492188 398.144531 514.703125 398.527344 514.992188 Z M 396.097656 519.675781 C 395.992188 519.675781 395.890625 519.671875 395.785156 519.664062 L 395.785156 518.882812 C 395.890625 518.890625 395.992188 518.898438 396.097656 518.898438 C 396.203125 518.898438 396.304688 518.890625 396.40625 518.882812 L 396.40625 519.664062 C 396.304688 519.671875 396.203125 519.675781 396.097656 519.675781 Z M 393.664062 518.914062 C 393.335938 518.667969 393.074219 518.378906 392.894531 518.050781 C 392.765625 517.824219 392.675781 517.585938 392.632812 517.34375 L 393.429688 517.34375 C 393.5625 517.800781 393.90625 518.125 394.132812 518.292969 C 394.382812 518.480469 394.683594 518.628906 395.007812 518.730469 L 395.007812 519.542969 C 394.507812 519.414062 394.050781 519.203125 393.664062 518.914062 Z M 397.183594 516.003906 C 397.335938 516.066406 397.472656 516.144531 397.597656 516.238281 C 397.761719 516.363281 398.039062 516.621094 398.039062 516.953125 C 398.039062 517.285156 397.761719 517.546875 397.597656 517.667969 C 397.472656 517.761719 397.335938 517.839844 397.183594 517.90625 Z M 395.785156 515.777344 C 395.890625 515.785156 395.992188 515.785156 396.097656 515.785156 C 396.203125 515.785156 396.304688 515.792969 396.40625 515.804688 L 396.40625 518.101562 C 396.304688 518.113281 396.203125 518.121094 396.097656 518.121094 C 395.992188 518.121094 395.886719 518.113281 395.785156 518.101562 Z M 395.785156 514.21875 C 395.890625 514.226562 395.992188 514.230469 396.097656 514.230469 C 396.203125 514.230469 396.304688 514.234375 396.40625 514.242188 L 396.40625 515.023438 C 396.304688 515.015625 396.203125 515.007812 396.097656 515.007812 C 395.992188 515.007812 395.890625 515.007812 395.785156 515 Z M 395.007812 511.335938 L 395.007812 513.238281 C 394.859375 513.175781 394.71875 513.097656 394.597656 513.003906 C 394.433594 512.878906 394.152344 512.621094 394.152344 512.289062 C 394.152344 511.957031 394.433594 511.695312 394.597656 511.570312 C 394.71875 511.480469 394.859375 511.402344 395.007812 511.335938 Z M 393.664062 514.25 C 393.335938 514.003906 393.074219 513.710938 392.894531 513.386719 C 392.699219 513.039062 392.597656 512.671875 392.597656 512.289062 C 392.597656 511.90625 392.699219 511.535156 392.894531 511.191406 C 393.074219 510.863281 393.335938 510.574219 393.664062 510.328125 C 394.050781 510.039062 394.507812 509.824219 395.007812 509.699219 L 395.007812 510.511719 C 394.683594 510.613281 394.382812 510.761719 394.132812 510.949219 C 393.847656 511.160156 393.375 511.617188 393.375 512.289062 C 393.375 512.960938 393.847656 513.414062 394.132812 513.625 C 394.382812 513.816406 394.683594 513.964844 395.007812 514.066406 L 395.007812 514.875 C 394.507812 514.75 394.050781 514.539062 393.664062 514.25 Z M 396.097656 509.566406 C 396.203125 509.566406 396.304688 509.570312 396.40625 509.578125 L 396.40625 510.359375 C 396.304688 510.347656 396.203125 510.34375 396.097656 510.34375 C 395.992188 510.34375 395.890625 510.347656 395.785156 510.359375 L 395.785156 509.578125 C 395.890625 509.570312 395.992188 509.566406 396.097656 509.566406 Z M 400.371094 512.675781 L 400.371094 512.289062 C 400.371094 511.769531 400.238281 511.273438 399.976562 510.808594 C 399.742188 510.386719 399.410156 510.019531 398.996094 509.707031 C 398.476562 509.316406 397.855469 509.042969 397.183594 508.902344 L 397.183594 508.011719 L 396.40625 508.011719 L 396.40625 508.800781 C 396.304688 508.792969 396.199219 508.789062 396.097656 508.789062 C 395.992188 508.789062 395.890625 508.792969 395.785156 508.800781 L 395.785156 508.011719 L 395.007812 508.011719 L 395.007812 508.902344 C 394.335938 509.042969 393.714844 509.316406 393.199219 509.707031 C 392.78125 510.019531 392.453125 510.386719 392.214844 510.808594 C 391.953125 511.273438 391.820312 511.769531 391.820312 512.289062 C 391.820312 512.804688 391.953125 513.304688 392.214844 513.769531 C 392.453125 514.1875 392.78125 514.558594 393.199219 514.871094 C 393.714844 515.257812 394.335938 515.53125 395.007812 515.675781 L 395.007812 517.90625 C 394.859375 517.839844 394.71875 517.761719 394.597656 517.667969 C 394.433594 517.546875 394.152344 517.285156 394.152344 516.953125 L 394.152344 516.566406 L 391.820312 516.566406 L 391.820312 516.953125 C 391.820312 517.472656 391.953125 517.96875 392.214844 518.433594 C 392.453125 518.851562 392.78125 519.222656 393.199219 519.535156 C 393.714844 519.921875 394.335938 520.195312 395.007812 520.339844 L 395.007812 521.230469 L 395.785156 521.230469 L 395.785156 520.441406 C 395.890625 520.449219 395.992188 520.453125 396.097656 520.453125 C 396.199219 520.453125 396.304688 520.449219 396.40625 520.441406 L 396.40625 521.230469 L 397.183594 521.230469 L 397.183594 520.339844 C 397.855469 520.195312 398.476562 519.921875 398.996094 519.535156 C 399.410156 519.222656 399.742188 518.851562 399.976562 518.433594 C 400.238281 517.96875 400.371094 517.472656 400.371094 516.953125 C 400.371094 516.433594 400.238281 515.9375 399.976562 515.472656 C 399.742188 515.054688 399.410156 514.683594 398.996094 514.371094 C 398.476562 513.984375 397.855469 513.710938 397.183594 513.566406 L 397.183594 511.335938 C 397.335938 511.402344 397.472656 511.480469 397.597656 511.570312 C 397.761719 511.695312 398.039062 511.957031 398.039062 512.289062 L 398.039062 512.675781 Z M 396.097656 506.777344 C 391.773438 506.777344 388.253906 510.296875 388.253906 514.621094 C 388.253906 518.945312 391.773438 522.464844 396.097656 522.464844 C 400.421875 522.464844 403.941406 518.945312 403.941406 514.621094 C 403.941406 510.296875 400.421875 506.777344 396.097656 506.777344 Z M 396.097656 523.242188 C 394.933594 523.242188 393.804688 523.011719 392.742188 522.5625 C 391.714844 522.128906 390.792969 521.507812 390 520.714844 C 389.210938 519.925781 388.589844 519.003906 388.152344 517.976562 C 387.703125 516.914062 387.476562 515.785156 387.476562 514.621094 C 387.476562 513.457031 387.703125 512.328125 388.152344 511.265625 C 388.589844 510.238281 389.210938 509.316406 390 508.523438 C 390.792969 507.734375 391.714844 507.113281 392.742188 506.679688 C 393.804688 506.226562 394.933594 506 396.097656 506 C 397.261719 506 398.390625 506.226562 399.453125 506.679688 C 400.480469 507.113281 401.402344 507.734375 402.191406 508.523438 C 402.984375 509.316406 403.605469 510.238281 404.039062 511.265625 C 404.488281 512.328125 404.71875 513.457031 404.71875 514.621094 C 404.71875 515.785156 404.488281 516.914062 404.039062 517.976562 C 403.605469 519.003906 402.984375 519.925781 402.191406 520.714844 C 401.402344 521.507812 400.480469 522.128906 399.453125 522.5625 C 398.390625 523.011719 397.261719 523.242188 396.097656 523.242188 " fill-opacity="1" fill-rule="nonzero"/></g><path fill="#ffffff" d="M 512.746094 301.738281 C 512.746094 320.671875 507.765625 339.285156 498.332031 355.585938 C 479.121094 388.8125 443.371094 409.441406 405.042969 409.441406 C 367.109375 409.441406 331.554688 389.125 312.246094 356.417969 C 302.496094 339.917969 297.339844 321.011719 297.339844 301.738281 C 297.339844 242.347656 345.652344 194.035156 405.042969 194.035156 C 464.433594 194.035156 512.746094 242.347656 512.746094 301.738281 " fill-opacity="1" fill-rule="nonzero"/><g clip-path="url(#b866f9b871)"><path fill="#ffffff" d="M 809.851562 643.964844 C 809.851562 647.578125 809.746094 651.175781 809.542969 654.734375 C 770.964844 677.65625 720.082031 693.414062 663.199219 698.285156 C 662.917969 629.746094 636.085938 565.347656 587.585938 516.851562 C 572.535156 501.792969 555.941406 488.824219 538.167969 478.09375 C 563.710938 464.941406 592.679688 457.511719 623.398438 457.511719 C 726.375 457.511719 809.851562 540.992188 809.851562 643.964844 " fill-opacity="1" fill-rule="nonzero"/></g><path fill="#ffffff" d="M 710.480469 346.660156 C 710.480469 362.523438 706.238281 377.386719 698.816406 390.203125 C 683.765625 416.230469 655.628906 433.742188 623.402344 433.742188 C 591.457031 433.742188 563.523438 416.527344 548.378906 390.878906 C 540.71875 377.917969 536.324219 362.808594 536.324219 346.660156 C 536.324219 298.574219 575.316406 259.585938 623.402344 259.585938 C 671.492188 259.585938 710.480469 298.574219 710.480469 346.660156 " fill-opacity="1" fill-rule="nonzero"/><g clip-path="url(#0c8a0acf18)"><path fill="#ffffff" d="M 645.671875 699.402344 L 645.671875 699.445312 C 645.671875 702.507812 645.609375 705.59375 645.488281 708.632812 C 581.71875 745.296875 497.550781 765.445312 407.816406 765.445312 C 316.414062 765.445312 228.058594 743.566406 164.496094 705.320312 C 164.441406 703.3125 164.414062 701.332031 164.414062 699.402344 L 164.414062 699.234375 C 164.476562 608.472656 215.046875 529.3125 289.484375 488.386719 C 323.804688 469.515625 363.191406 458.773438 405.042969 458.773438 C 446.898438 458.773438 486.28125 469.515625 520.605469 488.386719 C 595.085938 529.335938 645.671875 608.570312 645.671875 699.402344 " fill-opacity="1" fill-rule="nonzero"/></g><g clip-path="url(#f63939a509)"><path fill="#ffffff" d="M 809.851562 643.964844 C 809.851562 647.578125 809.746094 651.175781 809.542969 654.734375 C 770.964844 677.65625 720.082031 693.414062 663.199219 698.285156 C 662.917969 629.746094 636.085938 565.347656 587.585938 516.851562 C 572.535156 501.792969 555.941406 488.824219 538.167969 478.09375 C 563.710938 464.941406 592.679688 457.511719 623.398438 457.511719 C 726.375 457.511719 809.851562 540.992188 809.851562 643.964844 " fill-opacity="1" fill-rule="nonzero"/></g><g clip-path="url(#505d749283)"><path fill="#ffffff" d="M 222.5 516.851562 C 174.089844 565.261719 147.265625 629.515625 146.890625 697.921875 C 89.566406 692.441406 38.550781 675.894531 0.410156 652.140625 C 0.296875 649.421875 0.234375 646.691406 0.234375 643.964844 C 0.234375 540.992188 83.710938 457.511719 186.691406 457.511719 C 217.40625 457.511719 246.378906 464.941406 271.917969 478.09375 C 254.144531 488.824219 237.554688 501.792969 222.5 516.851562 " fill-opacity="1" fill-rule="nonzero"/></g><path fill="#ffffff" d="M 273.761719 346.660156 C 273.761719 362.523438 269.523438 377.386719 262.101562 390.203125 C 247.050781 416.230469 218.914062 433.742188 186.6875 433.742188 C 154.738281 433.742188 126.808594 416.527344 111.660156 390.878906 C 104 377.917969 99.605469 362.808594 99.605469 346.660156 C 99.605469 298.574219 138.597656 259.585938 186.6875 259.585938 C 234.773438 259.585938 273.761719 298.574219 273.761719 346.660156 " fill-opacity="1" fill-rule="nonzero"/><g clip-path="url(#acbdefa5c5)"><path fill="#ffffff" d="M 222.5 516.851562 C 174.089844 565.261719 147.265625 629.515625 146.890625 697.921875 C 89.566406 692.441406 38.550781 675.894531 0.410156 652.140625 C 0.296875 649.421875 0.234375 646.691406 0.234375 643.964844 C 0.234375 540.992188 83.710938 457.511719 186.691406 457.511719 C 217.40625 457.511719 246.378906 464.941406 271.917969 478.09375 C 254.144531 488.824219 237.554688 501.792969 222.5 516.851562 " fill-opacity="1" fill-rule="nonzero"/></g></svg>